# xmcd CD database file
#
# Track frame offsets:
#	151
#	13890
#	24337
#	38092
#	49751
#	61176
#	81909
#	93944
#	104251
#	116520
#
# Disc length: 1725 seconds
#
# Revision: 0
# Processed by: cddbd v1.5.1PL2 Copyright (c) Steve Scherf et al.
# Submitted via: Feurio! 1.68 - http://www.feurio.com
#
DISCID=7306bb0a
DTITLE=Various Artist - Gospel Music Gress - 2  - Glory Road Gospel
DYEAR=2003
DGENRE=Southern Gospel
TTITLE0=Bringing in the Sheaves
TTITLE1=Send the Light
TTITLE2=Life's Railway to Heaven
TTITLE3=Just Over in Gloryland
TTITLE4=Amazing Grace
TTITLE5=Great is Thy Faithfulness
TTITLE6=A Mighty Fortress is Our God
TTITLE7=Give Me Oil in My Lamp
TTITLE8=Palms of Victory
TTITLE9=Swing Low Sweet Chariot
EXTD=
EXTT0=
EXTT1=
EXTT2=
EXTT3=
EXTT4=
EXTT5=
EXTT6=
EXTT7=
EXTT8=
EXTT9=
PLAYORDER=
